<svg width="24" height="24" viewBox="0 0 24 24" fill="none" xmlns="http://www.w3.org/2000/svg">
<path d="M15.75 10.5V6C15.75 5.00544 15.3549 4.05161 14.6516 3.34835C13.9484 2.64509 12.9945 2.25 12 2.25C11.0054 2.25 10.0516 2.64509 9.34833 3.34835C8.64507 4.05161 8.24998 5.00544 8.24998 6V10.5M19.606 8.507L20.869 20.507C20.939 21.172 20.419 21.75 19.75 21.75H4.24998C4.09219 21.7502 3.93613 21.7171 3.79193 21.6531C3.64774 21.589 3.51863 21.4953 3.41301 21.3781C3.30738 21.2608 3.2276 21.1227 3.17884 20.9726C3.13008 20.8226 3.11343 20.6639 3.12999 20.507L4.39399 8.507C4.42314 8.23056 4.55361 7.9747 4.76024 7.78876C4.96686 7.60281 5.23501 7.49995 5.51298 7.5H18.487C19.063 7.5 19.546 7.935 19.606 8.507Z" stroke="black" stroke-width="1.5" stroke-linecap="square" stroke-linejoin="round"/>
</svg>
