<svg width="18" height="18" viewBox="0 0 18 18" fill="none" xmlns="http://www.w3.org/2000/svg">
<path d="M5.10445 17.8812C5.77918 17.3175 6.87139 15.4596 7.11757 14.5128C7.25015 14.0029 7.79665 11.9218 7.79665 11.9218C8.15209 12.5995 9.19037 13.1733 10.2948 13.1733C13.5821 13.1733 15.9507 10.1501 15.9507 6.39396C15.9505 2.7933 13.0121 0.0991211 9.23107 0.0991211C4.52772 0.0991211 2.02954 3.25662 2.02954 6.69467C2.02954 8.29328 2.88051 10.2835 4.24202 10.9171C4.44849 11.0131 4.55894 10.9709 4.60655 10.7713C4.64271 10.6198 4.82646 9.87963 4.90924 9.53525C4.93572 9.4252 4.92268 9.33056 4.83357 9.22269C4.38329 8.67658 4.02251 7.67209 4.02251 6.73538C4.02251 4.33144 5.8428 2.00535 8.94399 2.00535C11.6216 2.00535 13.4966 3.82999 13.4966 6.4396C13.4966 9.38806 12.0076 11.4306 10.0704 11.4306C9.00049 11.4306 8.19951 10.5459 8.45636 9.46116C8.7636 8.16545 9.3591 6.76738 9.3591 5.83225C9.3591 4.99511 8.9098 4.29687 7.98 4.29687C6.88621 4.29687 6.00778 5.4284 6.00778 6.94382C6.00778 7.90919 6.33378 8.56198 6.33378 8.56198C6.33378 8.56198 5.25362 13.129 5.05565 13.9798C4.83653 14.921 4.92248 16.2472 5.01791 17.1094L5.10445 17.8812Z" fill="white"/>
</svg>
